<svg width="20" height="20" viewBox="0 0 20 20" fill="none" xmlns="http://www.w3.org/2000/svg">
<g id="More Square">
<path id="Fill 1" fill-rule="evenodd" clip-rule="evenodd" d="M5.665 1.5C3.135 1.5 1.5 3.233 1.5 5.916V14.084C1.5 16.767 3.135 18.5 5.665 18.5H14.333C16.864 18.5 18.5 16.767 18.5 14.084V5.916C18.5 3.233 16.864 1.5 14.334 1.5H5.665ZM14.333 20H5.665C2.276 20 0 17.622 0 14.084V5.916C0 2.378 2.276 0 5.665 0H14.334C17.723 0 20 2.378 20 5.916V14.084C20 17.622 17.723 20 14.333 20Z" fill="#0943F1"/>
<path id="Fill 3" fill-rule="evenodd" clip-rule="evenodd" d="M13.9484 11.0137C13.3954 11.0137 12.9434 10.5667 12.9434 10.0137C12.9434 9.4607 13.3864 9.0137 13.9384 9.0137H13.9484C14.5014 9.0137 14.9484 9.4607 14.9484 10.0137C14.9484 10.5667 14.5014 11.0137 13.9484 11.0137Z" fill="#0943F1"/>
<path id="Fill 5" fill-rule="evenodd" clip-rule="evenodd" d="M9.93759 11.0137C9.38459 11.0137 8.93359 10.5667 8.93359 10.0137C8.93359 9.4607 9.37559 9.0137 9.92859 9.0137H9.93759C10.4906 9.0137 10.9376 9.4607 10.9376 10.0137C10.9376 10.5667 10.4906 11.0137 9.93759 11.0137Z" fill="#0943F1"/>
<path id="Fill 7" fill-rule="evenodd" clip-rule="evenodd" d="M5.92883 11.0137C5.37583 11.0137 4.92383 10.5667 4.92383 10.0137C4.92383 9.4607 5.36683 9.0137 5.91983 9.0137H5.92883C6.48183 9.0137 6.92883 9.4607 6.92883 10.0137C6.92883 10.5667 6.48183 11.0137 5.92883 11.0137Z" fill="#0943F1"/>
</g>
</svg>