<svg width="20" height="21" viewBox="0 0 20 21" fill="none" xmlns="http://www.w3.org/2000/svg">
<g id="vuesax/linear/more">
<g id="more">
<path id="Vector" d="M4.16667 8.68042C3.25 8.68042 2.5 9.46167 2.5 10.4165C2.5 11.3714 3.25 12.1526 4.16667 12.1526C5.08333 12.1526 5.83333 11.3714 5.83333 10.4165C5.83333 9.46167 5.08333 8.68042 4.16667 8.68042Z" stroke="black" stroke-width="1.25"/>
<path id="Vector_2" d="M15.8327 8.68042C14.916 8.68042 14.166 9.46167 14.166 10.4165C14.166 11.3714 14.916 12.1526 15.8327 12.1526C16.7493 12.1526 17.4993 11.3714 17.4993 10.4165C17.4993 9.46167 16.7493 8.68042 15.8327 8.68042Z" stroke="black" stroke-width="1.25"/>
<path id="Vector_3" d="M10.0007 8.68042C9.08398 8.68042 8.33398 9.46167 8.33398 10.4165C8.33398 11.3714 9.08398 12.1526 10.0007 12.1526C10.9173 12.1526 11.6673 11.3714 11.6673 10.4165C11.6673 9.46167 10.9173 8.68042 10.0007 8.68042Z" stroke="black" stroke-width="1.25"/>
</g>
</g>
</svg>
